<svg xmlns:dc="http://purl.org/dc/elements/1.1/" xmlns:cc="http://creativecommons.org/ns#" xmlns:rdf="http://www.w3.org/1999/02/22-rdf-syntax-ns#" xmlns="http://www.w3.org/2000/svg" viewBox="0 0 8.467 8.467" height="32" width="32"><title>Link Tools logo</title><metadata><rdf:RDF><cc:Work><dc:format>image/svg+xml</dc:format><dc:type rdf:resource="http://purl.org/dc/dcmitype/StillImage"/><dc:title>Link Tools logo</dc:title><dc:date>2018-04-18</dc:date><dc:creator><cc:Agent><dc:title>Daniel Dawson</dc:title></cc:Agent></dc:creator></cc:Work></rdf:RDF></metadata><path d="M.41.734v.661h1.322c.44 0 .643.147.773.333h.739c-.02-.05-.034-.098-.06-.15-.204-.409-.68-.844-1.452-.844zm6.612 0c-.771 0-1.248.435-1.452.845-.026.05-.04.1-.06.15h.74c.13-.187.332-.334.772-.334h1.324V.734zM2.502 3.05c-.129.185-.332.33-.77.33H.41v.662h1.323c.772 0 1.248-.436 1.453-.845.025-.05.038-.098.057-.147zm3.01 0c.02.05.033.096.058.147.204.41.68.845 1.452.845h1.324V3.38H7.022c-.437 0-.64-.144-.77-.329z" fill="context-fill -moz-dialogtext"/><path d="M2.062 2.058h4.63v.66h-4.63z" fill="context-fill -moz-dialogtext"/><path d="M4.274 5.821l-2.875-.77" stroke="context-fill -moz-dialogtext" stroke-width=".661" stroke-linejoin="round"/><path d="M6.362 5.696l1.597.428-.342 1.278-3.515-.942.343-1.277z" fill="#ff0101" stroke="#ff0101" stroke-width=".661" stroke-linejoin="round"/><path d="M.12 4.709l1.364.023-.171.639z" fill="context-fill -moz-dialogtext"/></svg>
